<svg width="1073" height="32" viewBox="0 0 1073 32" fill="none" xmlns="http://www.w3.org/2000/svg">
<rect width="200" height="32" fill="black" fill-opacity="0.4"/>
<path d="M21.9998 3.26001C14.9998 3.26001 9.25977 9.00001 9.25977 16C9.25977 23 14.9998 28.74 21.9998 28.74C28.9998 28.74 34.7398 23 34.7398 16C34.7398 9.00001 29.1398 3.26001 21.9998 3.26001ZM21.9998 27.2C15.8398 27.2 10.7998 22.16 10.7998 16C10.7998 9.84001 15.8398 4.80001 21.9998 4.80001C28.1598 4.80001 33.1998 9.84001 33.1998 16C33.1998 22.16 28.2998 27.2 21.9998 27.2Z" fill="#63FFFF"/>
<path d="M27.3198 19.92L27.1799 19.5L22.8398 9.84L22.6998 9.42C22.4198 9.14 22.2799 9 21.9999 9C21.8599 9 21.5799 9.14 21.4398 9.42L21.2998 9.84L16.9598 19.5L16.6799 20.06C16.5399 20.34 16.5399 20.48 16.8199 20.62C16.9599 20.76 17.2399 20.9 17.3799 20.76L17.7998 20.62L21.7199 19.08C21.8599 18.94 21.9999 18.94 22.1399 19.08L26.0598 20.62L26.6199 20.76C26.8999 20.9 27.0399 20.76 27.1799 20.62C27.3198 20.34 27.3198 20.06 27.3198 19.92ZM24.7999 18.24L22.4198 17.26C22.1398 17.12 21.9999 17.12 21.7199 17.26L19.3399 18.24V18.1L22.1399 12.08L24.9399 18.1C24.7999 18.1 24.7999 18.24 24.7999 18.24Z" fill="#63FFFF"/>
<path d="M52.55 9.616H55.952C55.7 8.824 55.412 8.086 55.088 7.42L56.438 7.204C56.726 7.906 56.996 8.716 57.284 9.616H60.722V10.894H52.55V9.616ZM44.792 15.142H46.016V9.148H47.996C48.23 8.5 48.41 7.852 48.536 7.186L49.886 7.366C49.742 8.014 49.562 8.608 49.328 9.148H51.794V22.162C51.794 23.17 51.308 23.674 50.354 23.674H48.842L48.518 22.468C49.04 22.504 49.526 22.54 49.976 22.54C50.372 22.54 50.588 22.27 50.588 21.73V16.33H47.186C47.114 19.426 46.628 21.928 45.728 23.854L44.72 22.936C45.512 21.172 45.944 18.976 45.998 16.33H44.792V15.142ZM50.588 15.142V10.354H47.204V15.142H50.588ZM48.644 11.272C49.148 12.064 49.58 12.964 49.976 13.99L49.004 14.242C48.662 13.324 48.23 12.442 47.708 11.578L48.644 11.272ZM48.698 17.32C49.166 18.292 49.598 19.39 49.994 20.65L48.95 20.938C48.626 19.786 48.194 18.688 47.69 17.644L48.698 17.32ZM51.974 22.954C52.64 22.126 53.108 21.226 53.396 20.29C53.63 19.444 53.756 18.22 53.756 16.636V12.874H58.778V22.054C58.778 22.288 58.886 22.414 59.12 22.414H59.552C59.678 22.414 59.786 22.378 59.894 22.342C59.966 22.306 60.038 22.234 60.074 22.162C60.164 22 60.218 21.172 60.218 19.66L61.388 20.02C61.388 21.046 61.352 21.838 61.28 22.378C61.208 22.828 61.064 23.152 60.83 23.332C60.596 23.476 60.218 23.548 59.714 23.548H59.084C58.058 23.548 57.554 23.08 57.554 22.18V14.062H54.98V16.636C54.98 18.238 54.836 19.57 54.548 20.65C54.26 21.73 53.738 22.792 52.964 23.836L51.974 22.954ZM67.706 13.702H74.348V20.002H67.706V13.702ZM73.088 18.778V14.926H68.966V18.778H73.088ZM69.83 7.24L71.18 7.42C70.964 8.32 70.658 9.148 70.262 9.922H78.2V21.928C78.2 23.098 77.642 23.692 76.562 23.692H73.862L73.502 22.378L76.13 22.432C76.634 22.432 76.904 22.162 76.904 21.64V11.164H65.24V23.764H63.944V9.922H68.894C69.326 9.058 69.632 8.176 69.83 7.24ZM84.14 9.148H85.292V22H83.816V10.948C83.006 11.776 81.998 12.352 80.792 12.712V11.236C81.368 11.074 81.98 10.822 82.592 10.462C83.204 10.066 83.708 9.634 84.14 9.148ZM92.6246 8.896C94.1546 8.896 95.3066 9.562 96.0986 10.93C96.7826 12.082 97.1246 13.63 97.1246 15.574C97.1246 17.518 96.7826 19.066 96.0986 20.218C95.3066 21.568 94.1546 22.252 92.6246 22.252C91.0766 22.252 89.9246 21.568 89.1506 20.218C88.4666 19.066 88.1246 17.518 88.1246 15.574C88.1246 13.63 88.4666 12.082 89.1506 10.93C89.9246 9.562 91.0766 8.896 92.6246 8.896ZM92.6246 10.156C91.4726 10.156 90.6446 10.768 90.1406 12.01C89.7806 12.874 89.6006 14.062 89.6006 15.574C89.6006 17.068 89.7806 18.256 90.1406 19.138C90.6446 20.362 91.4726 20.992 92.6246 20.992C93.7766 20.992 94.6046 20.362 95.1086 19.138C95.4686 18.256 95.6666 17.068 95.6666 15.574C95.6666 14.062 95.4686 12.874 95.1086 12.01C94.6046 10.768 93.7766 10.156 92.6246 10.156ZM103.418 8.896C104.948 8.896 106.1 9.562 106.892 10.93C107.576 12.082 107.918 13.63 107.918 15.574C107.918 17.518 107.576 19.066 106.892 20.218C106.1 21.568 104.948 22.252 103.418 22.252C101.87 22.252 100.718 21.568 99.9436 20.218C99.2596 19.066 98.9176 17.518 98.9176 15.574C98.9176 13.63 99.2596 12.082 99.9436 10.93C100.718 9.562 101.87 8.896 103.418 8.896ZM103.418 10.156C102.266 10.156 101.438 10.768 100.934 12.01C100.574 12.874 100.394 14.062 100.394 15.574C100.394 17.068 100.574 18.256 100.934 19.138C101.438 20.362 102.266 20.992 103.418 20.992C104.57 20.992 105.398 20.362 105.902 19.138C106.262 18.256 106.46 17.068 106.46 15.574C106.46 14.062 106.262 12.874 105.902 12.01C105.398 10.768 104.57 10.156 103.418 10.156ZM111.835 6.988C112.465 6.988 113.005 7.204 113.455 7.672C113.905 8.104 114.139 8.644 114.139 9.292C114.139 9.922 113.905 10.462 113.455 10.912C113.005 11.362 112.465 11.596 111.835 11.596C111.187 11.596 110.647 11.362 110.215 10.912C109.747 10.462 109.531 9.922 109.531 9.292C109.531 8.644 109.747 8.104 110.215 7.672C110.647 7.204 111.187 6.988 111.835 6.988ZM111.835 8.068C111.493 8.068 111.205 8.176 110.971 8.428C110.719 8.662 110.611 8.95 110.611 9.292C110.611 9.616 110.719 9.904 110.971 10.156C111.205 10.39 111.493 10.516 111.835 10.516C112.159 10.516 112.447 10.39 112.699 10.156C112.933 9.904 113.059 9.616 113.059 9.292C113.059 8.95 112.933 8.662 112.699 8.428C112.447 8.176 112.159 8.068 111.835 8.068ZM121.752 15.142H122.958V9.166H124.776C124.992 8.5 125.154 7.816 125.262 7.114L126.576 7.294C126.45 7.96 126.27 8.59 126.036 9.166H128.25V22.054C128.25 23.134 127.746 23.692 126.738 23.692H125.514L125.208 22.522C125.604 22.558 126 22.594 126.378 22.594C126.828 22.594 127.062 22.27 127.062 21.64V16.33H124.11C124.038 19.39 123.552 21.874 122.616 23.8L121.626 22.9C122.454 21.154 122.886 18.958 122.94 16.33H121.752V15.142ZM127.062 15.142V10.336H124.128V15.142H127.062ZM125.55 11.218C125.91 12.01 126.216 12.91 126.504 13.936L125.586 14.17C125.334 13.252 125.028 12.37 124.668 11.506L125.55 11.218ZM125.514 17.302C125.892 18.274 126.216 19.408 126.504 20.668L125.532 20.92C125.28 19.768 124.974 18.652 124.578 17.608L125.514 17.302ZM129.024 9.49H131.256C131.004 8.878 130.698 8.302 130.338 7.762L131.454 7.348C131.85 7.96 132.192 8.662 132.516 9.49H134.478C134.928 8.77 135.324 8.032 135.666 7.258L136.836 7.654C136.512 8.338 136.152 8.95 135.756 9.49H137.808V10.696H134.1C133.992 11.308 133.848 11.884 133.668 12.442H136.998V23.782H135.774V22.792H131.04V23.782H129.816V12.442H132.372C132.57 11.884 132.714 11.308 132.804 10.696H129.024V9.49ZM131.04 21.64H135.774V19.606H131.04V21.64ZM131.04 18.508H135.774V16.618H131.04V18.508ZM131.04 15.52H135.774V13.63H131.04V15.52ZM144.558 13.702H151.2V20.002H144.558V13.702ZM149.94 18.778V14.926H145.818V18.778H149.94ZM146.682 7.24L148.032 7.42C147.816 8.32 147.51 9.148 147.114 9.922H155.052V21.928C155.052 23.098 154.494 23.692 153.414 23.692H150.714L150.354 22.378L152.982 22.432C153.486 22.432 153.756 22.162 153.756 21.64V11.164H142.092V23.764H140.796V9.922H145.746C146.178 9.058 146.484 8.176 146.682 7.24ZM160.992 9.148H162.144V22H160.668V10.948C159.858 11.776 158.85 12.352 157.644 12.712V11.236C158.22 11.074 158.832 10.822 159.444 10.462C160.056 10.066 160.56 9.634 160.992 9.148ZM169.476 8.896C171.006 8.896 172.158 9.562 172.95 10.93C173.634 12.082 173.976 13.63 173.976 15.574C173.976 17.518 173.634 19.066 172.95 20.218C172.158 21.568 171.006 22.252 169.476 22.252C167.928 22.252 166.776 21.568 166.002 20.218C165.318 19.066 164.976 17.518 164.976 15.574C164.976 13.63 165.318 12.082 166.002 10.93C166.776 9.562 167.928 8.896 169.476 8.896ZM169.476 10.156C168.324 10.156 167.496 10.768 166.992 12.01C166.632 12.874 166.452 14.062 166.452 15.574C166.452 17.068 166.632 18.256 166.992 19.138C167.496 20.362 168.324 20.992 169.476 20.992C170.628 20.992 171.456 20.362 171.96 19.138C172.32 18.256 172.518 17.068 172.518 15.574C172.518 14.062 172.32 12.874 171.96 12.01C171.456 10.768 170.628 10.156 169.476 10.156ZM180.269 8.896C181.799 8.896 182.951 9.562 183.743 10.93C184.427 12.082 184.769 13.63 184.769 15.574C184.769 17.518 184.427 19.066 183.743 20.218C182.951 21.568 181.799 22.252 180.269 22.252C178.721 22.252 177.569 21.568 176.795 20.218C176.111 19.066 175.769 17.518 175.769 15.574C175.769 13.63 176.111 12.082 176.795 10.93C177.569 9.562 178.721 8.896 180.269 8.896ZM180.269 10.156C179.117 10.156 178.289 10.768 177.785 12.01C177.425 12.874 177.245 14.062 177.245 15.574C177.245 17.068 177.425 18.256 177.785 19.138C178.289 20.362 179.117 20.992 180.269 20.992C181.421 20.992 182.249 20.362 182.753 19.138C183.113 18.256 183.311 17.068 183.311 15.574C183.311 14.062 183.113 12.874 182.753 12.01C182.249 10.768 181.421 10.156 180.269 10.156ZM188.686 6.988C189.316 6.988 189.856 7.204 190.306 7.672C190.756 8.104 190.99 8.644 190.99 9.292C190.99 9.922 190.756 10.462 190.306 10.912C189.856 11.362 189.316 11.596 188.686 11.596C188.038 11.596 187.498 11.362 187.066 10.912C186.598 10.462 186.382 9.922 186.382 9.292C186.382 8.644 186.598 8.104 187.066 7.672C187.498 7.204 188.038 6.988 188.686 6.988ZM188.686 8.068C188.344 8.068 188.056 8.176 187.822 8.428C187.57 8.662 187.462 8.95 187.462 9.292C187.462 9.616 187.57 9.904 187.822 10.156C188.056 10.39 188.344 10.516 188.686 10.516C189.01 10.516 189.298 10.39 189.55 10.156C189.784 9.904 189.91 9.616 189.91 9.292C189.91 8.95 189.784 8.662 189.55 8.428C189.298 8.176 189.01 8.068 188.686 8.068Z" fill="#63FFFF"/>
<rect width="139" height="32" transform="translate(230)" fill="black" fill-opacity="0.4"/>
<path d="M260.654 25.3713C260.575 25.4623 260.478 25.5359 260.369 25.5876C260.26 25.6393 260.141 25.668 260.021 25.6718C259.9 25.6755 259.78 25.6544 259.668 25.6096C259.556 25.5648 259.455 25.4974 259.37 25.4115C259.286 25.3257 259.22 25.2232 259.176 25.1107C259.133 24.9981 259.114 24.8778 259.119 24.7574C259.125 24.6369 259.155 24.5189 259.208 24.4107C259.262 24.3026 259.337 24.2066 259.429 24.1288C260.401 23.1675 261.173 22.0229 261.7 20.7613C262.228 19.4997 262.499 18.1461 262.5 16.7788C262.5 13.994 261.394 11.3233 259.425 9.35414C257.455 7.385 254.785 6.27876 252 6.27876C249.215 6.27876 246.544 7.385 244.575 9.35414C242.606 11.3233 241.5 13.994 241.5 16.7788C241.501 18.1461 241.772 19.4997 242.3 20.7613C242.827 22.0229 243.599 23.1675 244.571 24.1288C244.734 24.2927 244.826 24.5145 244.826 24.7456C244.826 24.9768 244.734 25.1986 244.571 25.3625C244.49 25.4445 244.393 25.5096 244.286 25.554C244.18 25.5985 244.065 25.6213 243.95 25.6213C243.834 25.6213 243.72 25.5985 243.613 25.554C243.507 25.5096 243.41 25.4445 243.329 25.3625C241.619 23.6609 240.455 21.4885 239.986 19.1225C239.517 16.7565 239.763 14.3043 240.693 12.0789C241.624 9.8535 243.196 7.95588 245.21 6.62824C247.224 5.30061 249.588 4.60319 252 4.62501C255.232 4.62491 258.334 5.90231 260.628 8.17885C262.923 10.4554 264.225 13.5466 264.25 16.7788C264.249 18.3778 263.931 19.9607 263.314 21.4357C262.696 22.9108 261.792 24.2485 260.654 25.3713Z" fill="#63FFFF"/>
<path d="M240.625 18.625C240.393 18.625 240.17 18.5328 240.006 18.3687C239.842 18.2046 239.75 17.9821 239.75 17.75C239.75 17.5179 239.842 17.2954 240.006 17.1313C240.17 16.9672 240.393 16.875 240.625 16.875H242.375C242.607 16.875 242.83 16.9672 242.994 17.1313C243.158 17.2954 243.25 17.5179 243.25 17.75C243.25 17.9821 243.158 18.2046 242.994 18.3687C242.83 18.5328 242.607 18.625 242.375 18.625H240.625ZM261.625 18.625C261.393 18.625 261.17 18.5328 261.006 18.3687C260.842 18.2046 260.75 17.9821 260.75 17.75C260.75 17.5179 260.842 17.2954 261.006 17.1313C261.17 16.9672 261.393 16.875 261.625 16.875H263.375C263.607 16.875 263.83 16.9672 263.994 17.1313C264.158 17.2954 264.25 17.5179 264.25 17.75C264.25 17.9821 264.158 18.2046 263.994 18.3687C263.83 18.5328 263.607 18.625 263.375 18.625H261.625ZM243.504 9.62125C243.422 9.53967 243.357 9.44281 243.313 9.33622C243.269 9.22962 243.246 9.11538 243.246 9C243.246 8.88462 243.269 8.77038 243.313 8.66378C243.357 8.55719 243.422 8.46033 243.504 8.37875C243.585 8.29717 243.682 8.23245 243.789 8.1883C243.895 8.14415 244.01 8.12142 244.125 8.12142C244.24 8.12142 244.355 8.14415 244.461 8.1883C244.568 8.23245 244.665 8.29717 244.746 8.37875L245.621 9.25375C245.786 9.41852 245.879 9.64199 245.879 9.875C245.879 10.108 245.786 10.3315 245.621 10.4963C245.456 10.661 245.233 10.7536 245 10.7536C244.767 10.7536 244.544 10.661 244.379 10.4963L243.504 9.62125ZM258.379 24.4963C258.214 24.3315 258.121 24.108 258.121 23.875C258.121 23.642 258.214 23.4185 258.379 23.2537C258.544 23.089 258.767 22.9964 259 22.9964C259.233 22.9964 259.456 23.089 259.621 23.2537L260.496 24.1287C260.578 24.2103 260.643 24.3072 260.687 24.4138C260.731 24.5204 260.754 24.6346 260.754 24.75C260.754 24.8654 260.731 24.9796 260.687 25.0862C260.643 25.1928 260.578 25.2897 260.496 25.3713C260.415 25.4528 260.318 25.5175 260.211 25.5617C260.105 25.6059 259.99 25.6286 259.875 25.6286C259.76 25.6286 259.645 25.6059 259.539 25.5617C259.432 25.5175 259.335 25.4528 259.254 25.3713L258.379 24.4963ZM259.254 8.37875C259.419 8.21398 259.642 8.12142 259.875 8.12142C260.108 8.12142 260.331 8.21398 260.496 8.37875C260.661 8.54352 260.754 8.76699 260.754 9C260.754 9.23301 260.661 9.45648 260.496 9.62125L259.621 10.4963C259.54 10.5778 259.443 10.6425 259.336 10.6867C259.23 10.7309 259.115 10.7536 259 10.7536C258.767 10.7536 258.544 10.661 258.379 10.4963C258.297 10.4147 258.232 10.3178 258.188 10.2112C258.144 10.1046 258.121 9.99038 258.121 9.875C258.121 9.64199 258.214 9.41852 258.379 9.25375L259.254 8.37875ZM244.379 23.2537C244.544 23.089 244.767 22.9964 245 22.9964C245.233 22.9964 245.456 23.089 245.621 23.2537C245.786 23.4185 245.879 23.642 245.879 23.875C245.879 24.108 245.786 24.3315 245.621 24.4963L244.746 25.3713C244.581 25.536 244.358 25.6286 244.125 25.6286C243.892 25.6286 243.669 25.536 243.504 25.3713C243.339 25.2065 243.246 24.983 243.246 24.75C243.246 24.517 243.339 24.2935 243.504 24.1287L244.379 23.2537ZM251.125 6.375C251.125 6.14294 251.217 5.92038 251.381 5.75628C251.545 5.59219 251.768 5.5 252 5.5C252.232 5.5 252.455 5.59219 252.619 5.75628C252.783 5.92038 252.875 6.14294 252.875 6.375V8.125C252.875 8.35706 252.783 8.57962 252.619 8.74372C252.455 8.90781 252.232 9 252 9C251.768 9 251.545 8.90781 251.381 8.74372C251.217 8.57962 251.125 8.35706 251.125 8.125V6.375ZM254.345 15.8338L253.47 16.07C252.828 16.2215 252.199 16.4234 251.589 16.6737C251.367 16.8369 251.212 17.0742 251.151 17.3425C251.09 17.6108 251.127 17.8921 251.256 18.135C251.299 18.2395 251.364 18.3334 251.447 18.4102C251.53 18.487 251.628 18.5449 251.736 18.5799C251.843 18.6148 251.957 18.626 252.069 18.6126C252.181 18.5993 252.289 18.5617 252.385 18.5025C253.076 17.8677 253.717 17.1802 254.301 16.4462L254.511 16.21L254.949 15.685L254.345 15.8338ZM253.015 14.3725L253.89 14.1362C254.581 13.9613 255.316 13.7863 256.051 13.62L256.76 13.4538L257.04 13.3925C257.217 13.3529 257.402 13.3691 257.569 13.439C257.736 13.5088 257.877 13.6289 257.973 13.7826C258.069 13.9362 258.115 14.1159 258.105 14.2968C258.094 14.4777 258.028 14.6509 257.915 14.7925C257.915 14.8363 257.827 14.915 257.74 15.0112L257.276 15.5887C256.786 16.1838 256.296 16.7788 255.824 17.3388L255.614 17.5837C254.936 18.4671 254.161 19.2714 253.304 19.9812C253.003 20.1693 252.667 20.2921 252.316 20.3418C251.965 20.3914 251.608 20.3668 251.267 20.2694C250.926 20.1721 250.61 20.0042 250.338 19.7767C250.066 19.5492 249.846 19.2671 249.69 18.9488C249.357 18.3167 249.269 17.5837 249.443 16.8908C249.618 16.1979 250.042 15.5939 250.635 15.195C251.393 14.8273 252.192 14.5512 253.015 14.3725Z" fill="#63FFFF"/>
<path d="M282.55 9.616H285.952C285.7 8.824 285.412 8.086 285.088 7.42L286.438 7.204C286.726 7.906 286.996 8.716 287.284 9.616H290.722V10.894H282.55V9.616ZM274.792 15.142H276.016V9.148H277.996C278.23 8.5 278.41 7.852 278.536 7.186L279.886 7.366C279.742 8.014 279.562 8.608 279.328 9.148H281.794V22.162C281.794 23.17 281.308 23.674 280.354 23.674H278.842L278.518 22.468C279.04 22.504 279.526 22.54 279.976 22.54C280.372 22.54 280.588 22.27 280.588 21.73V16.33H277.186C277.114 19.426 276.628 21.928 275.728 23.854L274.72 22.936C275.512 21.172 275.944 18.976 275.998 16.33H274.792V15.142ZM280.588 15.142V10.354H277.204V15.142H280.588ZM278.644 11.272C279.148 12.064 279.58 12.964 279.976 13.99L279.004 14.242C278.662 13.324 278.23 12.442 277.708 11.578L278.644 11.272ZM278.698 17.32C279.166 18.292 279.598 19.39 279.994 20.65L278.95 20.938C278.626 19.786 278.194 18.688 277.69 17.644L278.698 17.32ZM281.974 22.954C282.64 22.126 283.108 21.226 283.396 20.29C283.63 19.444 283.756 18.22 283.756 16.636V12.874H288.778V22.054C288.778 22.288 288.886 22.414 289.12 22.414H289.552C289.678 22.414 289.786 22.378 289.894 22.342C289.966 22.306 290.038 22.234 290.074 22.162C290.164 22 290.218 21.172 290.218 19.66L291.388 20.02C291.388 21.046 291.352 21.838 291.28 22.378C291.208 22.828 291.064 23.152 290.83 23.332C290.596 23.476 290.218 23.548 289.714 23.548H289.084C288.058 23.548 287.554 23.08 287.554 22.18V14.062H284.98V16.636C284.98 18.238 284.836 19.57 284.548 20.65C284.26 21.73 283.738 22.792 282.964 23.836L281.974 22.954ZM298.372 8.77H302.962V7.312H304.168V8.77H308.686V9.958H304.168V11.488H308.092V16.078H304.168V21.586H302.962V16.6C302.044 18.202 300.622 19.57 298.696 20.704L297.886 19.678C299.866 18.67 301.27 17.464 302.116 16.078H299.038V11.488H302.962V9.958H298.372V8.77ZM306.904 14.926V12.622H304.168V14.926H306.904ZM302.962 14.926V12.622H300.244V14.926H302.962ZM305.59 16.618C306.868 17.644 307.948 18.67 308.83 19.714L307.966 20.578C307.174 19.57 306.112 18.526 304.744 17.41L305.59 16.618ZM294.268 7.582C295.51 8.518 296.554 9.454 297.4 10.39L296.482 11.29C295.726 10.39 294.7 9.436 293.386 8.428L294.268 7.582ZM304.762 23.476C303.772 23.476 302.692 23.458 301.54 23.44C300.388 23.422 299.434 23.314 298.714 23.116C297.994 22.9 297.364 22.45 296.806 21.802C296.554 21.496 296.32 21.352 296.104 21.352C295.672 21.352 294.97 22.18 293.998 23.836L293.026 22.954C293.962 21.442 294.808 20.524 295.528 20.2V14.728H292.972V13.54H296.734V20.272C296.878 20.38 297.022 20.506 297.184 20.686C297.616 21.208 298.084 21.586 298.588 21.82C299.146 22.072 299.956 22.216 301.036 22.252C301.99 22.27 303.178 22.288 304.582 22.288C305.446 22.288 306.31 22.27 307.192 22.252C308.074 22.234 308.758 22.216 309.226 22.18L308.902 23.476H304.762ZM320.17 9.148H321.754V22H319.648V11.686C318.874 12.388 317.902 12.91 316.714 13.252V11.164C317.29 11.02 317.902 10.768 318.55 10.408C319.198 10.012 319.738 9.598 320.17 9.148ZM328.777 8.896C330.145 8.896 331.243 9.256 332.071 9.994C332.791 10.642 333.169 11.452 333.169 12.424C333.169 13.072 333.025 13.63 332.737 14.08C332.413 14.548 331.945 14.926 331.315 15.178V15.214C331.909 15.376 332.431 15.736 332.863 16.294C333.349 16.906 333.601 17.608 333.601 18.4C333.601 19.552 333.169 20.47 332.341 21.19C331.495 21.892 330.307 22.252 328.777 22.252C327.229 22.252 326.041 21.892 325.213 21.19C324.367 20.47 323.953 19.552 323.953 18.4C323.953 17.608 324.187 16.906 324.691 16.294C325.123 15.736 325.627 15.376 326.239 15.214V15.178C325.591 14.926 325.123 14.548 324.817 14.08C324.529 13.63 324.385 13.072 324.385 12.424C324.385 11.452 324.745 10.642 325.483 9.994C326.293 9.256 327.391 8.896 328.777 8.896ZM328.777 10.57C328.021 10.57 327.409 10.768 326.959 11.182C326.563 11.542 326.365 11.974 326.365 12.496C326.365 13.09 326.527 13.558 326.851 13.9C327.247 14.314 327.877 14.53 328.777 14.53C329.659 14.53 330.307 14.314 330.703 13.9C331.027 13.558 331.189 13.09 331.189 12.496C331.189 11.974 330.991 11.542 330.595 11.182C330.127 10.768 329.533 10.57 328.777 10.57ZM328.777 16.096C327.877 16.096 327.193 16.312 326.725 16.744C326.257 17.158 326.041 17.716 326.041 18.4C326.041 19.048 326.275 19.57 326.761 19.966C327.229 20.362 327.895 20.56 328.777 20.56C329.641 20.56 330.325 20.344 330.829 19.948C331.279 19.552 331.513 19.048 331.513 18.4C331.513 17.716 331.279 17.158 330.847 16.762C330.361 16.312 329.677 16.096 328.777 16.096ZM335.25 8.896H337.302V16.384L341.118 12.694H343.764L339.642 16.546L344.124 22H341.496L338.238 17.86L337.302 18.742V22H335.25V8.896ZM349.771 12.442C351.139 12.442 352.111 12.946 352.705 13.954C353.137 13.378 353.587 12.982 354.055 12.766C354.469 12.55 354.991 12.442 355.621 12.442C356.575 12.442 357.367 12.748 358.015 13.396C358.627 14.044 358.951 14.872 358.951 15.898V22H356.899V16.258C356.899 15.52 356.737 14.98 356.431 14.656C356.107 14.314 355.603 14.152 354.883 14.152C354.379 14.152 353.965 14.332 353.623 14.728C353.263 15.106 353.101 15.628 353.101 16.312V22H351.049V16.276C351.049 14.854 350.437 14.152 349.213 14.152C348.619 14.152 348.151 14.368 347.791 14.836C347.431 15.268 347.251 15.808 347.251 16.42V22H345.199V12.694H347.251V13.648C348.025 12.838 348.871 12.442 349.771 12.442Z" fill="#63FFFF"/>
<rect width="290" height="32" transform="translate(399)" fill="black" fill-opacity="0.4"/>
<path d="M419.207 21.9668C419.266 20.7708 419.006 19.7733 418.439 18.9495C417.834 18.0698 416.9 17.4239 415.612 17.0103L411.353 21.9668H419.207ZM420.765 21.9668H429V23.5H408L425.178 3.5L426.366 4.49062L416.683 15.7625C417.997 16.2851 419.018 17.0599 419.726 18.0878C420.48 19.1818 420.824 20.4819 420.764 21.9648L420.765 21.9668Z" fill="#63FFFF"/>
<path d="M444.296 9.148H453.404V10.426H445.772V14.728H452.972V16.006H445.772V20.722H453.71V22H444.296V9.148ZM464.595 9.148H465.747V22H464.271V10.948C463.461 11.776 462.453 12.352 461.247 12.712V11.236C461.823 11.074 462.435 10.822 463.047 10.462C463.659 10.066 464.163 9.634 464.595 9.148ZM471.82 9.148H472.972V22H471.496V10.948C470.686 11.776 469.678 12.352 468.472 12.712V11.236C469.048 11.074 469.66 10.822 470.272 10.462C470.884 10.066 471.388 9.634 471.82 9.148ZM480.484 8.896C482.86 8.896 484.228 10.03 484.588 12.334H483.13C482.842 10.858 481.96 10.138 480.466 10.138C479.458 10.138 478.666 10.624 478.09 11.632C477.514 12.568 477.244 13.774 477.244 15.232C477.244 15.304 477.244 15.466 477.262 15.7H477.334C477.658 15.034 478.108 14.512 478.72 14.152C479.296 13.774 479.962 13.594 480.718 13.594C481.942 13.594 482.932 13.99 483.688 14.782C484.426 15.574 484.804 16.582 484.804 17.842C484.804 19.102 484.39 20.164 483.58 20.992C482.752 21.82 481.726 22.252 480.466 22.252C478.9 22.252 477.73 21.658 476.938 20.506C476.182 19.408 475.822 17.878 475.822 15.916C475.822 13.864 476.218 12.19 477.028 10.912C477.874 9.562 479.026 8.896 480.484 8.896ZM480.43 14.818C479.584 14.818 478.882 15.106 478.324 15.682C477.766 16.258 477.496 16.978 477.496 17.878C477.496 18.778 477.748 19.516 478.288 20.092C478.828 20.704 479.53 21.01 480.43 21.01C481.294 21.01 481.996 20.704 482.536 20.128C483.076 19.516 483.346 18.76 483.346 17.842C483.346 16.924 483.076 16.204 482.554 15.664C482.014 15.088 481.312 14.818 480.43 14.818ZM488.073 19.858C488.361 19.858 488.631 19.966 488.847 20.182C489.063 20.398 489.171 20.65 489.171 20.974C489.171 21.28 489.063 21.532 488.847 21.748C488.631 21.964 488.361 22.072 488.073 22.072C487.749 22.072 487.497 21.964 487.299 21.748C487.083 21.532 486.975 21.28 486.975 20.974C486.975 20.65 487.083 20.398 487.299 20.182C487.497 19.966 487.749 19.858 488.073 19.858ZM495.969 8.896C497.193 8.896 498.201 9.202 498.957 9.832C499.695 10.462 500.073 11.308 500.073 12.388C500.073 13.828 499.371 14.8 497.967 15.268C498.723 15.502 499.299 15.862 499.695 16.366C500.127 16.87 500.343 17.5 500.343 18.256C500.343 19.426 499.929 20.38 499.119 21.118C498.291 21.874 497.211 22.252 495.879 22.252C494.655 22.252 493.665 21.928 492.891 21.316C491.973 20.56 491.469 19.462 491.361 18.022H492.855C492.891 19.03 493.233 19.804 493.863 20.326C494.403 20.758 495.069 20.992 495.879 20.992C496.797 20.992 497.535 20.722 498.093 20.2C498.597 19.696 498.867 19.066 498.867 18.31C498.867 17.536 498.615 16.942 498.111 16.51C497.607 16.078 496.923 15.88 496.023 15.88H494.979V14.728H495.969C496.833 14.728 497.481 14.53 497.931 14.152C498.381 13.756 498.615 13.198 498.615 12.478C498.615 11.758 498.381 11.2 497.949 10.804C497.481 10.372 496.815 10.174 495.987 10.174C495.123 10.174 494.457 10.39 493.971 10.858C493.467 11.326 493.179 11.992 493.089 12.856H491.631C491.739 11.614 492.207 10.642 492.999 9.94C493.755 9.238 494.745 8.896 495.969 8.896ZM506.492 8.896C508.04 8.896 509.21 9.472 510.002 10.624C510.758 11.704 511.136 13.252 511.136 15.232C511.136 17.284 510.722 18.94 509.93 20.236C509.066 21.568 507.914 22.252 506.474 22.252C504.08 22.252 502.712 21.1 502.37 18.814H503.828C504.098 20.272 504.98 21.01 506.492 21.01C507.482 21.01 508.274 20.506 508.868 19.516C509.426 18.562 509.714 17.356 509.714 15.916C509.714 15.826 509.696 15.664 509.696 15.448H509.624C509.3 16.096 508.832 16.618 508.238 16.996C507.662 17.356 506.996 17.554 506.24 17.554C504.998 17.554 504.008 17.14 503.252 16.33C502.514 15.556 502.154 14.548 502.154 13.306C502.154 12.028 502.55 10.984 503.378 10.156C504.188 9.31 505.232 8.896 506.492 8.896ZM506.528 10.138C505.646 10.138 504.944 10.426 504.404 11.02C503.864 11.614 503.612 12.37 503.612 13.306C503.612 14.206 503.864 14.944 504.404 15.484C504.926 16.042 505.628 16.33 506.528 16.33C507.356 16.33 508.058 16.042 508.634 15.466C509.174 14.89 509.462 14.152 509.462 13.27C509.462 12.37 509.192 11.632 508.67 11.056C508.13 10.444 507.41 10.138 506.528 10.138ZM512.641 9.148H521.083V10.354L516.349 22H514.783L519.571 10.498H512.641V9.148ZM528.785 9.148H530.171V17.878H532.259V19.084H530.171V22H528.767V19.084H522.305V17.68L528.785 9.148ZM528.713 11.074L523.547 17.878H528.767V11.074H528.713ZM538.246 8.896C540.622 8.896 541.99 10.03 542.35 12.334H540.892C540.604 10.858 539.722 10.138 538.228 10.138C537.22 10.138 536.428 10.624 535.852 11.632C535.276 12.568 535.006 13.774 535.006 15.232C535.006 15.304 535.006 15.466 535.024 15.7H535.096C535.42 15.034 535.87 14.512 536.482 14.152C537.058 13.774 537.724 13.594 538.48 13.594C539.704 13.594 540.694 13.99 541.45 14.782C542.188 15.574 542.566 16.582 542.566 17.842C542.566 19.102 542.152 20.164 541.342 20.992C540.514 21.82 539.488 22.252 538.228 22.252C536.662 22.252 535.492 21.658 534.7 20.506C533.944 19.408 533.584 17.878 533.584 15.916C533.584 13.864 533.98 12.19 534.79 10.912C535.636 9.562 536.788 8.896 538.246 8.896ZM538.192 14.818C537.346 14.818 536.644 15.106 536.086 15.682C535.528 16.258 535.258 16.978 535.258 17.878C535.258 18.778 535.51 19.516 536.05 20.092C536.59 20.704 537.292 21.01 538.192 21.01C539.056 21.01 539.758 20.704 540.298 20.128C540.838 19.516 541.108 18.76 541.108 17.842C541.108 16.924 540.838 16.204 540.316 15.664C539.776 15.088 539.074 14.818 538.192 14.818ZM544.071 9.148H552.513V10.354L547.779 22H546.213L551.001 10.498H544.071V9.148ZM556.651 19.858C557.047 19.858 557.389 20.02 557.641 20.362C557.875 20.686 558.001 21.1 558.001 21.622C558.001 22.414 557.767 23.116 557.299 23.728C556.831 24.304 556.201 24.7 555.445 24.898V24.016C555.913 23.854 556.291 23.584 556.579 23.224C556.831 22.846 556.975 22.45 556.975 22.018C556.903 22.054 556.759 22.09 556.579 22.09C556.273 22.09 556.021 21.982 555.805 21.766C555.589 21.55 555.481 21.28 555.481 20.974C555.481 20.632 555.589 20.362 555.805 20.164C556.021 19.948 556.291 19.858 556.651 19.858ZM572.599 9.148H574.147L581.419 19.606H581.473V9.148H582.949V22H581.437L574.129 11.434H574.075V22H572.599V9.148ZM595.76 8.896C596.984 8.896 597.992 9.202 598.748 9.832C599.486 10.462 599.864 11.308 599.864 12.388C599.864 13.828 599.162 14.8 597.758 15.268C598.514 15.502 599.09 15.862 599.486 16.366C599.918 16.87 600.134 17.5 600.134 18.256C600.134 19.426 599.72 20.38 598.91 21.118C598.082 21.874 597.002 22.252 595.67 22.252C594.446 22.252 593.456 21.928 592.682 21.316C591.764 20.56 591.26 19.462 591.152 18.022H592.646C592.682 19.03 593.024 19.804 593.654 20.326C594.194 20.758 594.86 20.992 595.67 20.992C596.588 20.992 597.326 20.722 597.884 20.2C598.388 19.696 598.658 19.066 598.658 18.31C598.658 17.536 598.406 16.942 597.902 16.51C597.398 16.078 596.714 15.88 595.814 15.88H594.77V14.728H595.76C596.624 14.728 597.272 14.53 597.722 14.152C598.172 13.756 598.406 13.198 598.406 12.478C598.406 11.758 598.172 11.2 597.74 10.804C597.272 10.372 596.606 10.174 595.778 10.174C594.914 10.174 594.248 10.39 593.762 10.858C593.258 11.326 592.97 11.992 592.88 12.856H591.422C591.53 11.614 591.998 10.642 592.79 9.94C593.546 9.238 594.536 8.896 595.76 8.896ZM606.283 8.896C607.831 8.896 609.001 9.472 609.793 10.624C610.549 11.704 610.927 13.252 610.927 15.232C610.927 17.284 610.513 18.94 609.721 20.236C608.857 21.568 607.705 22.252 606.265 22.252C603.871 22.252 602.503 21.1 602.161 18.814H603.619C603.889 20.272 604.771 21.01 606.283 21.01C607.273 21.01 608.065 20.506 608.659 19.516C609.217 18.562 609.505 17.356 609.505 15.916C609.505 15.826 609.487 15.664 609.487 15.448H609.415C609.091 16.096 608.623 16.618 608.029 16.996C607.453 17.356 606.787 17.554 606.031 17.554C604.789 17.554 603.799 17.14 603.043 16.33C602.305 15.556 601.945 14.548 601.945 13.306C601.945 12.028 602.341 10.984 603.169 10.156C603.979 9.31 605.023 8.896 606.283 8.896ZM606.319 10.138C605.437 10.138 604.735 10.426 604.195 11.02C603.655 11.614 603.403 12.37 603.403 13.306C603.403 14.206 603.655 14.944 604.195 15.484C604.717 16.042 605.419 16.33 606.319 16.33C607.147 16.33 607.849 16.042 608.425 15.466C608.965 14.89 609.253 14.152 609.253 13.27C609.253 12.37 608.983 11.632 608.461 11.056C607.921 10.444 607.201 10.138 606.319 10.138ZM614.196 19.858C614.484 19.858 614.754 19.966 614.97 20.182C615.186 20.398 615.294 20.65 615.294 20.974C615.294 21.28 615.186 21.532 614.97 21.748C614.754 21.964 614.484 22.072 614.196 22.072C613.872 22.072 613.62 21.964 613.422 21.748C613.206 21.532 613.098 21.28 613.098 20.974C613.098 20.65 613.206 20.398 613.422 20.182C613.62 19.966 613.872 19.858 614.196 19.858ZM621.822 8.896C623.37 8.896 624.54 9.472 625.332 10.624C626.088 11.704 626.466 13.252 626.466 15.232C626.466 17.284 626.052 18.94 625.26 20.236C624.396 21.568 623.244 22.252 621.804 22.252C619.41 22.252 618.042 21.1 617.7 18.814H619.158C619.428 20.272 620.31 21.01 621.822 21.01C622.812 21.01 623.604 20.506 624.198 19.516C624.756 18.562 625.044 17.356 625.044 15.916C625.044 15.826 625.026 15.664 625.026 15.448H624.954C624.63 16.096 624.162 16.618 623.568 16.996C622.992 17.356 622.326 17.554 621.57 17.554C620.328 17.554 619.338 17.14 618.582 16.33C617.844 15.556 617.484 14.548 617.484 13.306C617.484 12.028 617.88 10.984 618.708 10.156C619.518 9.31 620.562 8.896 621.822 8.896ZM621.858 10.138C620.976 10.138 620.274 10.426 619.734 11.02C619.194 11.614 618.942 12.37 618.942 13.306C618.942 14.206 619.194 14.944 619.734 15.484C620.256 16.042 620.958 16.33 621.858 16.33C622.686 16.33 623.388 16.042 623.964 15.466C624.504 14.89 624.792 14.152 624.792 13.27C624.792 12.37 624.522 11.632 624 11.056C623.46 10.444 622.74 10.138 621.858 10.138ZM632.759 8.896C634.289 8.896 635.441 9.562 636.233 10.93C636.917 12.082 637.259 13.63 637.259 15.574C637.259 17.518 636.917 19.066 636.233 20.218C635.441 21.568 634.289 22.252 632.759 22.252C631.211 22.252 630.059 21.568 629.285 20.218C628.601 19.066 628.259 17.518 628.259 15.574C628.259 13.63 628.601 12.082 629.285 10.93C630.059 9.562 631.211 8.896 632.759 8.896ZM632.759 10.156C631.607 10.156 630.779 10.768 630.275 12.01C629.915 12.874 629.735 14.062 629.735 15.574C629.735 17.068 629.915 18.256 630.275 19.138C630.779 20.362 631.607 20.992 632.759 20.992C633.911 20.992 634.739 20.362 635.243 19.138C635.603 18.256 635.801 17.068 635.801 15.574C635.801 14.062 635.603 12.874 635.243 12.01C634.739 10.768 633.911 10.156 632.759 10.156ZM643.552 8.896C644.884 8.896 645.946 9.238 646.702 9.94C647.386 10.57 647.746 11.362 647.746 12.298C647.746 12.982 647.584 13.558 647.26 14.026C646.9 14.53 646.396 14.908 645.73 15.142V15.178C646.396 15.34 646.972 15.718 647.44 16.294C647.944 16.906 648.196 17.626 648.196 18.454C648.196 19.588 647.8 20.506 647.008 21.19C646.18 21.892 645.028 22.252 643.552 22.252C642.058 22.252 640.906 21.892 640.096 21.19C639.304 20.506 638.908 19.588 638.908 18.454C638.908 17.626 639.16 16.906 639.664 16.294C640.132 15.718 640.69 15.34 641.374 15.178V15.142C640.69 14.908 640.186 14.53 639.844 14.026C639.52 13.558 639.358 12.982 639.358 12.298C639.358 11.362 639.7 10.57 640.402 9.94C641.158 9.238 642.202 8.896 643.552 8.896ZM643.552 10.102C642.634 10.102 641.914 10.336 641.41 10.804C640.96 11.2 640.744 11.722 640.744 12.352C640.744 13 640.942 13.54 641.338 13.936C641.806 14.404 642.544 14.656 643.552 14.656C644.542 14.656 645.28 14.404 645.766 13.936C646.162 13.54 646.36 13 646.36 12.352C646.36 11.722 646.126 11.2 645.694 10.804C645.172 10.336 644.452 10.102 643.552 10.102ZM643.552 15.808C642.508 15.808 641.716 16.06 641.158 16.582C640.618 17.05 640.366 17.68 640.366 18.454C640.366 19.21 640.618 19.84 641.158 20.308C641.698 20.794 642.508 21.046 643.552 21.046C644.596 21.046 645.388 20.794 645.964 20.29C646.468 19.822 646.738 19.21 646.738 18.454C646.738 17.68 646.468 17.05 645.964 16.582C645.388 16.06 644.578 15.808 643.552 15.808ZM649.557 9.148H657.999V10.354L653.265 22H651.699L656.487 10.498H649.557V9.148ZM664.315 8.896C665.539 8.896 666.547 9.202 667.303 9.832C668.041 10.462 668.419 11.308 668.419 12.388C668.419 13.828 667.717 14.8 666.313 15.268C667.069 15.502 667.645 15.862 668.041 16.366C668.473 16.87 668.689 17.5 668.689 18.256C668.689 19.426 668.275 20.38 667.465 21.118C666.637 21.874 665.557 22.252 664.225 22.252C663.001 22.252 662.011 21.928 661.237 21.316C660.319 20.56 659.815 19.462 659.707 18.022H661.201C661.237 19.03 661.579 19.804 662.209 20.326C662.749 20.758 663.415 20.992 664.225 20.992C665.143 20.992 665.881 20.722 666.439 20.2C666.943 19.696 667.213 19.066 667.213 18.31C667.213 17.536 666.961 16.942 666.457 16.51C665.953 16.078 665.269 15.88 664.369 15.88H663.325V14.728H664.315C665.179 14.728 665.827 14.53 666.277 14.152C666.727 13.756 666.961 13.198 666.961 12.478C666.961 11.758 666.727 11.2 666.295 10.804C665.827 10.372 665.161 10.174 664.333 10.174C663.469 10.174 662.803 10.39 662.317 10.858C661.813 11.326 661.525 11.992 661.435 12.856H659.977C660.085 11.614 660.553 10.642 661.345 9.94C662.101 9.238 663.091 8.896 664.315 8.896ZM674.838 8.896C676.386 8.896 677.556 9.472 678.348 10.624C679.104 11.704 679.482 13.252 679.482 15.232C679.482 17.284 679.068 18.94 678.276 20.236C677.412 21.568 676.26 22.252 674.82 22.252C672.426 22.252 671.058 21.1 670.716 18.814H672.174C672.444 20.272 673.326 21.01 674.838 21.01C675.828 21.01 676.62 20.506 677.214 19.516C677.772 18.562 678.06 17.356 678.06 15.916C678.06 15.826 678.042 15.664 678.042 15.448H677.97C677.646 16.096 677.178 16.618 676.584 16.996C676.008 17.356 675.342 17.554 674.586 17.554C673.344 17.554 672.354 17.14 671.598 16.33C670.86 15.556 670.5 14.548 670.5 13.306C670.5 12.028 670.896 10.984 671.724 10.156C672.534 9.31 673.578 8.896 674.838 8.896ZM674.874 10.138C673.992 10.138 673.29 10.426 672.75 11.02C672.21 11.614 671.958 12.37 671.958 13.306C671.958 14.206 672.21 14.944 672.75 15.484C673.272 16.042 673.974 16.33 674.874 16.33C675.702 16.33 676.404 16.042 676.98 15.466C677.52 14.89 677.808 14.152 677.808 13.27C677.808 12.37 677.538 11.632 677.016 11.056C676.476 10.444 675.756 10.138 674.874 10.138Z" fill="#63FFFF"/>
<rect width="160" height="32" transform="translate(719)" fill="black" fill-opacity="0.4"/>
<path d="M741 16.6095C743.095 16.6095 744.799 14.9133 744.799 12.8284C744.799 10.7436 743.095 9.04756 741 9.04756C738.905 9.04756 737.201 10.7437 737.201 12.8285C737.201 14.9134 738.905 16.6095 741 16.6095ZM741 10.56C742.259 10.5614 743.278 11.5764 743.28 12.8286C743.28 14.0816 742.259 15.0973 741 15.0973C739.741 15.0973 738.721 14.0816 738.721 12.8286C738.721 11.5757 739.741 10.56 741 10.56ZM751.472 25.9678L748.432 22.1869C748.361 22.0982 748.27 22.0267 748.168 21.9776C748.065 21.9285 747.953 21.903 747.839 21.9031H746.319C745.899 21.9031 745.559 22.2416 745.559 22.6592C745.559 23.0768 745.899 23.4154 746.319 23.4154H747.474L749.297 25.6841H732.703L734.527 23.4154H735.681C736.101 23.4154 736.441 23.0767 736.441 22.6592C736.441 22.2417 736.101 21.9031 735.681 21.9031H734.161C734.048 21.903 733.935 21.9285 733.833 21.9776C733.73 22.0267 733.64 22.0982 733.568 22.1869L730.529 25.9678C730.421 26.1018 730.362 26.2685 730.362 26.4403C730.362 26.858 730.702 27.1965 731.122 27.1965H750.878C751.051 27.1966 751.218 27.1382 751.353 27.0309C751.431 26.969 751.496 26.8924 751.544 26.8054C751.592 26.7184 751.623 26.6228 751.634 26.524C751.645 26.4252 751.636 26.3252 751.608 26.2298C751.58 26.1343 751.534 26.0453 751.472 25.9678ZM735.096 18.717L735.097 18.7177L740.463 24.0575C740.605 24.1994 740.799 24.279 741 24.279C741.202 24.279 741.395 24.1995 741.538 24.0575L746.911 18.7104L746.917 18.7044C750.181 15.4526 750.178 10.1831 746.911 6.93457C743.643 3.68613 738.348 3.68881 735.084 6.94059C731.82 10.1924 731.823 15.462 735.09 18.7104C735.092 18.7126 735.094 18.7147 735.096 18.7169L735.096 18.717ZM736.164 8.01621C738.835 5.35831 743.165 5.35831 745.836 8.01621C748.506 10.674 748.506 14.9832 745.836 17.6411L741 22.4534L736.164 17.6411C733.494 14.9832 733.494 10.674 736.164 8.01621Z" fill="#63FFFF"/>
<path d="M775.672 13.486V16.744H778.39V13.486H775.672ZM778.39 12.352V9.148H775.672V12.352H778.39ZM775.636 17.896C775.492 20.272 774.898 22.216 773.836 23.728L772.9 22.9C773.926 21.388 774.448 19.444 774.484 17.104V7.96H779.578V22.306C779.578 23.26 779.092 23.746 778.12 23.746H776.698L776.392 22.594C776.878 22.63 777.328 22.666 777.76 22.666C778.174 22.666 778.39 22.396 778.39 21.892V17.896H775.636ZM765.016 7.69C766.15 8.518 767.104 9.364 767.896 10.192L766.996 11.074C766.312 10.282 765.358 9.418 764.134 8.518L765.016 7.69ZM764.656 11.902C765.808 12.784 766.798 13.666 767.59 14.53L766.69 15.412C765.988 14.584 765.016 13.684 763.774 12.73L764.656 11.902ZM766.51 16.672L767.626 17.122C766.888 19.39 766.078 21.532 765.178 23.548L764.008 23.044C764.962 20.974 765.79 18.85 766.51 16.672ZM773.278 15.52V21.676H769.498V22.738H768.31V15.52H770.2V12.1H767.86V10.93H770.2V7.816H771.442V10.93H773.782V12.1H771.442V15.52H773.278ZM769.498 20.56H772.126V16.636H769.498V20.56ZM786.976 7.348H788.308V23.674H786.976V20.65C785.5 21.334 783.916 21.892 782.242 22.36L781.936 21.082C783.7 20.686 785.374 20.11 786.976 19.354V13.576H782.206V12.334H786.976V7.348ZM795.796 23.512H793.042C791.908 23.512 791.35 22.9 791.35 21.712V7.348H792.664V13.378C794.23 12.802 795.742 12.01 797.218 10.984L797.974 12.046C796.102 13.18 794.338 14.026 792.664 14.602V21.514C792.664 22.018 792.88 22.288 793.33 22.288H795.58C795.976 22.288 796.264 22.144 796.444 21.856C796.588 21.532 796.696 20.47 796.75 18.634L797.974 19.03C797.866 21.136 797.686 22.414 797.398 22.864C797.11 23.296 796.57 23.512 795.796 23.512ZM807.136 7.258H808.414V11.866H807.136V7.258ZM803.032 15.178C802.186 15.358 801.322 15.538 800.422 15.7L799.882 14.53C805.444 13.63 809.674 12.172 812.59 10.174C811.942 9.652 811.258 9.13 810.52 8.608L811.384 7.78C813.274 9.094 814.858 10.408 816.154 11.704L815.254 12.622C814.75 12.064 814.156 11.506 813.508 10.948C811.708 12.226 809.476 13.288 806.83 14.152H813.994V23.746H812.734V22.936H804.292V23.782H803.032V15.178ZM804.292 21.784H812.734V20.236H804.292V21.784ZM804.292 19.192H812.734V17.752H804.292V19.192ZM804.292 16.708H812.734V15.25H804.292V16.708ZM804.274 8.284L805.192 9.094C804.112 10.426 802.78 11.596 801.196 12.604L800.44 11.632C801.97 10.66 803.248 9.544 804.274 8.284ZM819.376 8.554H826.252V9.76H819.376V8.554ZM818.044 11.596H827.98C827.908 10.282 827.872 8.86 827.872 7.312H829.186C829.186 8.914 829.222 10.336 829.294 11.596H833.938V12.838H829.366C829.474 14.332 829.618 15.574 829.816 16.546C830.176 18.364 830.626 19.75 831.13 20.704C831.598 21.55 831.976 21.982 832.264 21.982C832.516 21.964 832.75 21.1 832.966 19.39L834.136 20.038C833.758 22.414 833.2 23.602 832.48 23.602C831.85 23.602 831.166 23.062 830.428 21.982C829.708 20.848 829.096 19.192 828.628 17.014C828.376 15.844 828.178 14.458 828.052 12.838H818.044V11.596ZM823.012 13.918H824.308V16.42H827.35V17.626H824.308V20.938C825.586 20.65 826.774 20.326 827.872 19.984V21.208C824.956 22.126 821.662 22.864 817.972 23.404L817.792 22.126C818.386 22.036 818.962 21.946 819.502 21.874V15.376H820.762V21.658C821.536 21.514 822.292 21.37 823.012 21.226V13.918ZM831.4 7.348C832.138 8.23 832.786 9.202 833.362 10.264L832.282 10.804C831.688 9.688 831.04 8.68 830.32 7.816L831.4 7.348ZM837.412 7.564C838.672 8.518 839.734 9.472 840.598 10.426L839.68 11.344C838.906 10.444 837.844 9.472 836.512 8.464L837.412 7.564ZM836.98 11.776C838.24 12.676 839.284 13.594 840.148 14.512L839.23 15.43C838.456 14.566 837.394 13.648 836.044 12.676L836.98 11.776ZM839.482 16.78L840.652 17.248C839.77 19.534 838.78 21.676 837.682 23.692L836.386 23.134C837.574 21.064 838.6 18.94 839.482 16.78ZM851.47 23.71C849.616 22.414 848.068 20.992 846.826 19.48C845.35 21.208 843.586 22.63 841.534 23.746L840.688 22.702C842.83 21.586 844.612 20.164 846.016 18.436C844.18 15.844 843.1 12.964 842.812 9.796H841.372V8.554H851.164V9.688C850.534 13.144 849.346 16.078 847.6 18.49C848.878 20.02 850.462 21.406 852.37 22.666L851.47 23.71ZM846.79 17.428C848.266 15.286 849.292 12.748 849.832 9.796H844.036C844.288 12.604 845.206 15.16 846.79 17.428ZM854.026 9.364H861.298C861.01 8.608 860.686 7.942 860.362 7.33L861.748 7.114C862.036 7.78 862.324 8.536 862.612 9.364H869.974V10.606H862.666V12.964H868.516V19.498C868.516 20.578 867.958 21.136 866.878 21.136H865.078L864.754 19.894L866.464 19.966C866.968 19.966 867.22 19.714 867.22 19.21V14.206H862.666V23.764H861.334V14.206H856.996V21.262H855.718V12.964H861.334V10.606H854.026V9.364Z" fill="#63FFFF"/>
<rect width="164" height="32" transform="translate(909)" fill="black" fill-opacity="0.4"/>
<g clip-path="url(#clip0_449_2471)">
<path d="M929.314 17.1692C929.496 17.2483 929.64 17.3928 929.72 17.5739L934.018 27.4C934.071 27.5195 934.092 27.6502 934.081 27.7802C934.07 27.9101 934.027 28.0353 933.956 28.1445C933.884 28.2536 933.787 28.3433 933.672 28.4053C933.557 28.4674 933.429 28.4999 933.299 28.5H924.701C924.571 28.4999 924.443 28.4674 924.328 28.4053C924.213 28.3433 924.116 28.2536 924.044 28.1445C923.973 28.0353 923.93 27.9101 923.919 27.7802C923.908 27.6502 923.929 27.5195 923.982 27.4L928.28 17.5739C928.321 17.4793 928.381 17.3937 928.455 17.3222C928.529 17.2506 928.617 17.1945 928.713 17.1569C928.81 17.1193 928.912 17.101 929.015 17.1032C929.119 17.1053 929.221 17.1277 929.315 17.1692H929.314ZM929 19.8493L925.901 26.9286H932.097L928.998 19.8493H929ZM929 6.5C935.075 6.5 940 11.4249 940 17.5C940 21.2714 938.102 24.5997 935.209 26.5813L934.551 25.1222C935.753 24.2479 936.731 23.1015 937.405 21.7767C938.079 20.4519 938.43 18.9864 938.429 17.5C938.429 12.2931 934.207 8.07143 929 8.07143C923.793 8.07143 919.571 12.2931 919.571 17.5C919.571 20.6326 921.099 23.4086 923.45 25.1222L922.792 26.5821C921.314 25.5729 920.105 24.2181 919.27 22.6353C918.435 21.0525 917.999 19.2896 918 17.5C918 11.4249 922.925 6.5 929 6.5ZM929 10.4286C930.45 10.4285 931.865 10.8742 933.054 11.7054C934.242 12.5366 935.146 13.713 935.643 15.0753C936.14 16.4375 936.207 17.9197 935.833 19.3209C935.46 20.7222 934.665 21.9747 933.556 22.9089L932.877 21.4003C933.65 20.6324 934.177 19.6524 934.392 18.5845C934.607 17.5167 934.5 16.4091 934.084 15.4022C933.669 14.3953 932.964 13.5344 932.059 12.9286C931.153 12.3229 930.089 11.9995 928.999 11.9996C927.91 11.9998 926.846 12.3233 925.94 12.9292C925.035 13.5352 924.33 14.3962 923.915 15.4032C923.5 16.4102 923.393 17.5178 923.608 18.5856C923.823 19.6534 924.351 20.6333 925.123 21.4011L924.444 22.9096C923.335 21.9756 922.539 20.723 922.166 19.3216C921.792 17.9202 921.859 16.4378 922.356 15.0754C922.853 13.713 923.757 12.5364 924.946 11.7052C926.134 10.874 927.55 10.4283 929 10.4286Z" fill="#63FFFF"/>
</g>
<path d="M951.268 7.582C952.51 8.518 953.554 9.454 954.4 10.39L953.482 11.29C952.726 10.39 951.7 9.436 950.386 8.428L951.268 7.582ZM961.798 23.476C960.808 23.476 959.728 23.458 958.576 23.44C957.406 23.422 956.452 23.314 955.732 23.116C955.012 22.9 954.364 22.45 953.806 21.802C953.554 21.496 953.32 21.352 953.104 21.352C952.672 21.352 951.952 22.18 950.962 23.836L949.99 22.954C950.944 21.442 951.79 20.524 952.528 20.2V14.728H949.972V13.54H953.734V20.272C953.878 20.38 954.022 20.506 954.184 20.686C954.616 21.208 955.084 21.586 955.588 21.82C956.164 22.072 956.974 22.216 958.054 22.252C959.008 22.27 960.196 22.288 961.618 22.288C962.446 22.288 963.31 22.27 964.192 22.252C965.056 22.234 965.722 22.216 966.19 22.18L965.884 23.476H961.798ZM958.576 9.31C959.332 9.76 960.034 10.21 960.646 10.66C961.582 10.174 962.446 9.634 963.238 9.022H955.246V7.924H964.984V8.86C963.904 9.796 962.734 10.606 961.474 11.29L961.762 11.524H965.326V19.57C965.326 20.488 964.822 20.956 963.814 20.956H962.32L962.032 19.858L963.454 19.912C963.886 19.912 964.102 19.696 964.102 19.3V17.95H961.078V21.046H959.872V17.95H956.866V21.1H955.642V11.524H960.142C959.458 11.038 958.666 10.552 957.784 10.084L958.576 9.31ZM956.866 15.304V16.888H959.872V15.304H956.866ZM961.078 15.304V16.888H964.102V15.304H961.078ZM964.102 14.224V12.604H961.078V14.224H964.102ZM959.872 14.224V12.604H956.866V14.224H959.872ZM969.772 13.72C969.232 14.512 968.638 15.286 967.99 16.006L967.576 14.62C969.34 12.442 970.618 9.94 971.428 7.132L972.634 7.69C972.202 9.076 971.68 10.372 971.05 11.596V23.836H969.772V13.72ZM972.562 9.67H978.106C977.836 8.95 977.53 8.266 977.17 7.582L978.412 7.24C978.79 8.032 979.078 8.752 979.294 9.418L978.61 9.67H984.28V10.894H972.562V9.67ZM974.218 12.352H982.732V13.522H974.218V12.352ZM974.218 14.89H982.732V16.078H974.218V14.89ZM983.056 17.554V23.8H981.796V22.828H975.136V23.8H973.876V17.554H983.056ZM975.136 21.604H981.796V18.76H975.136V21.604ZM989.842 15.952V7.402H991.12V23.746H989.842V17.482C988.762 18.634 987.52 19.732 986.152 20.74L985.756 19.39C987.25 18.4 988.618 17.248 989.842 15.952ZM987.214 9.184C987.898 10.624 988.492 12.172 988.996 13.81L987.862 14.332C987.304 12.532 986.674 10.948 985.99 9.58L987.214 9.184ZM999.364 7.654C1000.34 8.734 1001.07 9.688 1001.6 10.498L1000.59 11.218C1000.05 10.318 999.292 9.346 998.356 8.284L999.364 7.654ZM997.366 7.348C997.366 8.68 997.348 10.264 997.312 12.136H1001.7V13.378H997.456C998.23 17.41 999.85 20.542 1002.33 22.738L1001.45 23.71C999.184 21.568 997.654 18.85 996.862 15.574C996.106 18.832 994.684 21.568 992.632 23.764L991.768 22.792C994.18 20.092 995.566 16.942 995.926 13.378H992.308V12.136H995.998C996.052 10.048 996.088 8.446 996.088 7.348H997.366ZM1011.35 7.132L1012.65 7.258C1012.58 7.942 1012.45 8.572 1012.31 9.184H1019.25V10.426H1013.49C1014.38 12.424 1016.61 13.972 1020.19 15.088L1019.51 16.204C1015.51 14.8 1013.08 12.874 1012.18 10.426H1011.91C1011.51 11.47 1010.97 12.388 1010.31 13.144C1010.24 13.216 1010.18 13.27 1010.13 13.342C1010.92 13.9 1011.78 14.62 1012.76 15.502L1011.86 16.402C1010.99 15.538 1010.13 14.764 1009.26 14.08C1008.08 14.962 1006.38 15.682 1004.22 16.258L1003.72 15.07C1006.28 14.422 1008.13 13.486 1009.26 12.298C1009.77 11.758 1010.16 11.128 1010.49 10.426H1004.58V9.184H1010.94C1011.14 8.536 1011.28 7.852 1011.35 7.132ZM1005.57 17.77L1006.85 18.04C1006.42 19.912 1005.81 21.532 1005.03 22.9L1003.92 22.198C1004.67 20.866 1005.23 19.39 1005.57 17.77ZM1012.4 17.122C1013.03 18.058 1013.58 19.066 1014.05 20.146L1012.86 20.668C1012.36 19.462 1011.84 18.4 1011.26 17.482L1012.4 17.122ZM1017.78 17.5C1018.64 18.832 1019.4 20.272 1020.05 21.82L1018.86 22.342C1018.16 20.65 1017.38 19.174 1016.54 17.896L1017.78 17.5ZM1014.48 23.422H1009.91C1008.76 23.422 1008.2 22.81 1008.2 21.622V17.716H1009.53V21.352C1009.53 21.892 1009.79 22.162 1010.33 22.162H1014.25C1014.63 22.162 1014.9 22.054 1015.06 21.838C1015.28 21.586 1015.42 20.848 1015.49 19.606L1016.72 20.002C1016.59 21.622 1016.34 22.594 1015.98 22.954C1015.65 23.26 1015.17 23.422 1014.48 23.422Z" fill="#63FFFF"/>
<path d="M1037.86 9.508H1031.05V8.23H1045.27V9.508H1039.17V14.746H1044.35V15.988H1039.17V21.748H1046.03V23.008H1029.99V21.748H1032.82V13.108H1034.08V21.748H1037.86V9.508ZM1055.33 16.528H1051.37V12.568H1060.66V16.528H1056.67V17.968H1062.39V21.244C1062.39 22.324 1061.83 22.864 1060.75 22.864H1059.31L1058.97 21.622L1060.34 21.676C1060.84 21.676 1061.11 21.424 1061.11 20.956V19.156H1056.67V23.836H1055.33V19.156H1050.98V22.972H1049.7V17.968H1055.33V16.528ZM1055.33 7.204H1056.67V9.958H1058.95C1059.51 9.166 1060 8.338 1060.39 7.456L1061.6 7.906C1061.18 8.698 1060.75 9.382 1060.32 9.958H1063.49V13.594H1062.16V11.182H1049.84V13.612H1048.51V9.958H1051.45C1051.1 9.274 1050.69 8.626 1050.22 8.032L1051.45 7.582C1051.91 8.248 1052.35 9.04 1052.72 9.958H1055.33V7.204ZM1059.42 15.43V13.666H1052.63V15.43H1059.42Z" fill="#00FA00"/>
<defs>
<clipPath id="clip0_449_2471">
<rect width="24" height="24" fill="white" transform="translate(917 4)"/>
</clipPath>
</defs>
</svg>
